<svg width="24" height="24" viewBox="0 0 24 24" fill="none" xmlns="http://www.w3.org/2000/svg">
<path d="M11.2232 19.1155L11.2217 19.1142C8.62662 16.761 6.55384 14.8788 5.1178 13.1231C3.69324 11.3815 3 9.88653 3 8.32501C3 5.7973 4.97228 3.82501 7.5 3.82501C8.93721 3.82501 10.3322 4.49895 11.2386 5.56335L12 6.45742L12.7614 5.56335C13.6678 4.49895 15.0628 3.82501 16.5 3.82501C19.0277 3.82501 21 5.7973 21 8.32501C21 9.88654 20.3068 11.3815 18.882 13.1247C17.4459 14.8816 15.3734 16.7659 12.7786 19.124C12.7782 19.1243 12.7778 19.1246 12.7775 19.1249L12.0026 19.825L11.2232 19.1155Z" fill="white" stroke="#202020" stroke-width="2"/>
</svg>
