<svg width="24" height="24" viewBox="0 0 24 24" fill="none" xmlns="http://www.w3.org/2000/svg">
<path d="M16.0421 7.7043C17.5858 8.81139 19.4763 9.46282 21.5181 9.46282V6.35875C20.3784 6.11511 19.3694 5.51738 18.6108 4.68597C17.3122 3.87276 16.3766 2.53118 16.1023 0.960938H13.2397V16.7116C13.2332 18.5478 11.7484 20.0346 9.91724 20.0346C8.83819 20.0346 7.87957 19.5184 7.27245 18.7188C6.18831 18.1696 5.44486 17.0423 5.44486 15.7404C5.44486 13.8991 6.93218 12.4062 8.76724 12.4062C9.11883 12.4062 9.4577 12.4611 9.77557 12.5624V9.42436C5.83484 9.50607 2.66553 12.7375 2.66553 16.7117C2.66553 18.6955 3.45476 20.494 4.73569 21.8081C5.89127 22.5868 7.28237 23.041 8.77905 23.041C12.7903 23.041 16.0422 19.7775 16.0422 15.7518V7.7043H16.0421Z" fill="white"/>
<path d="M21.5182 6.3578V5.51848C20.4904 5.52005 19.4828 5.23119 18.6108 4.68493C19.3827 5.53306 20.3992 6.11787 21.5182 6.3578ZM16.1023 0.959983C16.0762 0.809911 16.0561 0.658851 16.0421 0.507214V0H12.0896V15.7508C12.0833 17.5868 10.5985 19.0736 8.76726 19.0736C8.22962 19.0736 7.72201 18.9455 7.27247 18.7179C7.87959 19.5174 8.83822 20.0335 9.91727 20.0335C11.7482 20.0335 13.2333 18.5469 13.2397 16.7107V0.959983H16.1023ZM9.77576 9.4234V8.52989C9.4455 8.48459 9.11253 8.46186 8.77915 8.46202C4.76754 8.46194 1.51562 11.7254 1.51562 15.7508C1.51562 18.2745 2.79368 20.4987 4.73579 21.807C3.45486 20.493 2.66563 18.6944 2.66563 16.7106C2.66563 12.7365 5.83486 9.50511 9.77576 9.4234Z" fill="white"/>
</svg>
