<svg width="24" height="25" viewBox="0 0 24 25" fill="none" xmlns="http://www.w3.org/2000/svg">
<path d="M18.39 15.0776C16.71 14.2176 14.53 13.5176 12 13.5176C9.47 13.5176 7.29 14.2176 5.61 15.0776C4.61 15.5876 4 16.6176 4 17.7376V20.5176H20V17.7376C20 16.6176 19.39 15.5876 18.39 15.0776ZM18 18.5176H6V17.7376C6 17.3576 6.2 17.0176 6.52 16.8576C7.71 16.2476 9.63 15.5176 12 15.5176C14.37 15.5176 16.29 16.2476 17.48 16.8576C17.8 17.0176 18 17.3576 18 17.7376V18.5176Z" fill="#202020"/>
<path d="M12 12.5176C14.21 12.5176 16 10.7276 16 8.51758C16 7.14758 16 5.01758 16 5.01758C16 4.18758 15.33 3.51758 14.5 3.51758C13.98 3.51758 13.52 3.78758 13.25 4.18758C12.98 3.78758 12.52 3.51758 12 3.51758C11.48 3.51758 11.02 3.78758 10.75 4.18758C10.48 3.78758 10.02 3.51758 9.5 3.51758C8.67 3.51758 8 4.18758 8 5.01758C8 5.01758 8 7.13758 8 8.51758C8 10.7276 9.79 12.5176 12 12.5176ZM10 6.01758H14V8.51758C14 9.61758 13.1 10.5176 12 10.5176C10.9 10.5176 10 9.61758 10 8.51758V6.01758Z" fill="#202020"/>
</svg>
