<svg width="24" height="24" viewBox="0 0 24 24" fill="none" xmlns="http://www.w3.org/2000/svg">
<path d="M23.9328 7.05204C23.8752 5.77422 23.6687 4.89992 23.3759 4.13611C23.0686 3.34828 22.6605 2.67574 21.9932 2.01281C21.3259 1.34988 20.6585 0.931946 19.8712 0.629304C19.1078 0.331465 18.234 0.129704 16.957 0.0720576C15.6751 0.0144115 15.2671 0 12.012 0C8.75215 0 8.34407 0.0144115 7.06701 0.0720576C5.78996 0.129704 4.91618 0.336269 4.15283 0.629304C3.36067 0.93675 2.68854 1.34508 2.02601 2.01281C1.36347 2.68054 0.945791 3.34828 0.64333 4.13611C0.350471 4.89992 0.14403 5.77422 0.0864187 7.05204C0.0288072 8.33467 0.0144043 8.743 0.0144043 12C0.0144043 15.2618 0.0288072 15.6701 0.0864187 16.948C0.14403 18.2258 0.350471 19.1001 0.64333 19.8639C0.950592 20.6517 1.35867 21.3243 2.02601 21.9872C2.68854 22.6549 3.36067 23.0681 4.14803 23.3707C4.91138 23.6685 5.78516 23.8703 7.06221 23.9279C8.34407 23.9856 8.75215 24 12.0072 24C15.2671 24 15.6751 23.9856 16.9522 23.9279C18.2292 23.8703 19.103 23.6637 19.8664 23.3707C20.6537 23.0633 21.3259 22.6549 21.9884 21.9872C22.6509 21.3195 23.0686 20.6517 23.3711 19.8639C23.6687 19.1001 23.8704 18.2258 23.928 16.948C23.9856 15.6653 24 15.257 24 12C24 8.743 23.9904 8.32986 23.9328 7.05204ZM21.7772 16.8519C21.7243 18.024 21.5275 18.6629 21.3643 19.0809C21.1482 19.6381 20.8842 20.0416 20.4617 20.4644C20.0392 20.8871 19.6407 21.1417 19.079 21.3675C18.6565 21.5308 18.018 21.7278 16.8514 21.7806C15.5887 21.8383 15.2094 21.8527 12.0024 21.8527C8.79536 21.8527 8.41608 21.8383 7.15343 21.7806C5.982 21.7278 5.34347 21.5308 4.92579 21.3675C4.36888 21.1513 3.96559 20.8871 3.54311 20.4644C3.12063 20.0416 2.86617 19.6429 2.64053 19.0809C2.4773 18.6581 2.28046 18.0192 2.22765 16.8519C2.17004 15.5885 2.15563 15.209 2.15563 12C2.15563 8.79103 2.17004 8.41153 2.22765 7.14812C2.28046 5.97598 2.4773 5.33707 2.64053 4.91914C2.85657 4.36189 3.12063 3.95837 3.54311 3.53563C3.96559 3.11289 4.36407 2.85829 4.92579 2.63251C5.34827 2.46918 5.9868 2.27222 7.15343 2.21938C8.41608 2.16173 8.79536 2.14732 12.0024 2.14732C15.2094 2.14732 15.5887 2.16173 16.8514 2.21938C18.0228 2.27222 18.6613 2.46918 19.079 2.63251C19.6359 2.84868 20.0392 3.11289 20.4617 3.53563C20.8842 3.95837 21.1386 4.35709 21.3643 4.91914C21.5275 5.34187 21.7243 5.98079 21.7772 7.14812C21.8348 8.41153 21.8492 8.79103 21.8492 12C21.8492 15.209 21.83 15.5885 21.7772 16.8519Z" fill="white"/>
<path d="M12.0024 5.83203C8.59376 5.83203 5.83801 8.59424 5.83801 12.0002C5.83801 15.4109 8.59856 18.1683 12.0024 18.1683C15.4063 18.1683 18.1669 15.4013 18.1669 12.0002C18.1669 8.58944 15.4111 5.83203 12.0024 5.83203ZM12.0024 16.0018C9.794 16.0018 8.00325 14.2099 8.00325 12.0002C8.00325 9.7904 9.794 7.99856 12.0024 7.99856C14.2109 7.99856 16.0016 9.7904 16.0016 12.0002C16.0016 14.2099 14.2109 16.0018 12.0024 16.0018Z" fill="white"/>
<path d="M18.4068 7.03465C19.2023 7.03465 19.8471 6.38942 19.8471 5.5935C19.8471 4.79757 19.2023 4.15234 18.4068 4.15234C17.6114 4.15234 16.9666 4.79757 16.9666 5.5935C16.9666 6.38942 17.6114 7.03465 18.4068 7.03465Z" fill="white"/>
</svg>
